:SAMPLES-PER-SECOND 30
:FULLY-SPECIFIED
:DEGREES
25
root  34.89794694 36.55769468 -14.6115701 9.49207592 -4.033710957 3.13976717
lowerback  -8.827118874 -0.1774039865 -0.3036740124
upperback  -3.73893261 0.2479349971 -3.208029985
thorax  1.095280051 0.276740998 -3.119129896
lowerneck  -14.76990032 -4.969359875 -3.966909885
upperneck  15.01019955 -6.937409878 6.821259975
head  7.429460049 -2.831069946 2.136499882
lclavicle  0 -4.497500157e-015 -2.743230041e-014
lhumerus  -48.09400177 31.2614994 62.87360001
lradius  0.007675028872 -6.507048965e-006 29.56699753
lwrist  3.192251654e-007 -3.790274832e-007 -28.59601974
lhand  -4.419251534e-031 -36.96220016 -10.70400047
lfingers  90 7.125020027 -90
lthumb  94.85142675 -25.53707256 101.1382397
rclavicle  0 -4.497500157e-015 -2.743230041e-014
rhumerus  -50.20970154 -33.74369812 -53.59579849
rradius  -5.16745672e-007 2.214343908e-008 50.44380188
rwrist  0.0006954420824 -0.004670973402 -157.2640076
rhand  -3.534725302e-031 -2.586210012 -7.559510231
rfingers  -90 -7.125020027 -90
rthumb  -86.52009333 -8.094882938 -66.64269016
rfemur  -12.38632774 15.73176098 12.91039658
rtibia  -0.5589663386 -0.6579205394 19.82941628
rfoot  0.4190392792 -21.35316849 -36.66550446
rtoes  4.075155514 19.59709229 -101.9922835
lfemur  -8.168588638 -15.89648342 -19.93427467
ltibia  2.833391666 0.09533551335 13.65616608
lfoot  0.3769577146 -24.92373657 35.82985306
ltoes  -8.738665583 -18.06061251 -116.3726366
26
root  34.89691967 36.5566554 -14.60771486 9.475371361 -4.029397011 3.124996424
lowerback  -8.823470116 -0.1905810386 -0.3413023055
upperback  -3.739933729 0.2342749983 -3.208282948
thorax  1.083879948 0.2706489861 -3.096100092
lowerneck  -14.73989964 -4.963069916 -3.957079887
upperneck  14.94320011 -6.924369812 6.788630009
head  7.399889946 -2.830699921 2.126159906
lclavicle  0 -4.497500157e-015 -2.743230041e-014
lhumerus  -48.13380051 31.28910065 62.8246994
lradius  0.008017651737 -6.507048965e-006 29.53849983
lwrist  3.192251654e-007 -3.790274832e-007 -28.6147995
lhand  -0 -36.95000076 -10.71609974
lfingers  90 7.125020027 -90
lthumb  94.84828971 -25.54945248 101.1262778
rclavicle  0 -4.497500157e-015 -2.743230041e-014
rhumerus  -49.93989944 -33.08860016 -54.08720016
rradius  -5.16745672e-007 2.214343908e-008 51.6772995
rwrist  0.0006954420824 -0.004670973402 -158.352005
rhand  -1.767346803e-031 -2.574810028 -7.73443985
rfingers  -90 -7.125020027 -90
rthumb  -86.58805403 -7.934849772 -66.64129338
rfemur  -12.32632351 15.72976112 12.92463875
rtibia  -0.5350344181 -0.6656525135 19.76158905
rfoot  0.4642138481 -21.36483002 -36.6256485
rtoes  4.052459762 19.60162071 -101.924624
lfemur  -8.15490818 -15.88939571 -19.9226284
ltibia  2.828564167 0.1144964993 13.68283653
lfoot  0.3982882798 -24.98866844 35.84302139
ltoes  -8.717515768 -18.07056693 -116.3044346
27
root  34.89603959 36.5562499 -14.60619048 9.475543976 -4.027398586 3.128983259
lowerback  -8.835619926 -0.1983430237 -0.3490681648
upperback  -3.74138999 0.2245000005 -3.207484961
thorax  1.098009944 0.2657459974 -3.090070009
lowerneck  -14.72220039 -4.977920055 -3.944360018
upperneck  14.88949966 -6.937699795 6.731339931
head  7.377270222 -2.844680071 2.104010105
lclavicle  0 -4.497500157e-015 -2.743230041e-014
lhumerus  -48.17679977 31.26740074 62.83319855
lradius  0.008350381628 -6.507048965e-006 29.57780075
lwrist  3.192251654e-007 -3.790274832e-007 -28.59670067
lhand  -4.418578408e-031 -36.95059967 -10.63599968
lfingers  90 7.125020027 -90
lthumb  94.83143233 -25.4707081 101.1195582
rclavicle  0 -4.497500157e-015 -2.743230041e-014
rhumerus  -49.70700073 -32.46699905 -54.54380035
rradius  -5.16745672e-007 2.214343908e-008 53.12080002
rwrist  0.0006954420824 -0.004670973402 -158.7669983
rhand  -1.767255011e-031 -2.507760048 -7.639910221
rfingers  -90 -7.125020027 -90
rthumb  -86.5378806 -8.025251906 -66.57076452
rfemur  -12.30122662 15.69830418 12.91105747
rtibia  -0.5211070776 -0.6947972178 19.7241993
rfoot  0.4623710513 -21.41719055 -36.64670563
rtoes  4.050399341 19.60203051 -101.9184823
lfemur  -8.138129234 -15.8727951 -19.93276787
ltibia  2.85132575 0.1302622259 13.65968895
lfoot  0.4184413552 -25.01403427 35.86191177
ltoes  -8.712032533 -18.07314272 -116.2867587
28
root  34.89543284 36.55585642 -14.60283835 9.475776672 -4.031744957 3.139012575
lowerback  -8.829238892 -0.1988372505 -0.3187491
upperback  -3.743059158 0.2246589959 -3.206957102
thorax  1.088999987 0.2645366192 -3.11371994
lowerneck  -14.66030025 -5.013599873 -3.969320059
upperneck  14.81750011 -6.979529858 6.727330208
head  7.346079826 -2.870140076 2.103070021
lclavicle  0 -4.497500157e-015 -2.743230041e-014
lhumerus  -48.21170044 31.25519943 62.81090164
lradius  0.008671243675 -6.507048965e-006 29.5890007
lwrist  3.192251654e-007 -3.790274832e-007 -28.57950211
lhand  -4.420691827e-031 -36.98699951 -10.59319973
lfingers  90 7.125020027 -90
lthumb  94.83928472 -25.42742386 101.1545138
rclavicle  0 -4.497500157e-015 -2.743230041e-014
rhumerus  -49.51620102 -31.82980156 -54.959198
rradius  -5.16745672e-007 2.214343908e-008 54.49919891
rwrist  0.0006954420824 -0.004670973402 -159.9349976
rhand  -1.767014456e-031 -2.322849989 -7.412879944
rfingers  -90 -7.125020027 -90
rthumb  -86.41200974 -8.243015807 -66.37767088
rfemur  -12.29098034 15.68629551 12.90327644
rtibia  -0.5186952949 -0.7027819753 19.72165108
rfoot  0.4609409571 -21.43462181 -36.63999939
rtoes  4.076469224 19.59682935 -101.9962003
lfemur  -8.068119049 -15.85268879 -19.97579193
ltibia  2.914815426 0.1456176639 13.56076336
lfoot  0.4258459508 -25.00161171 35.87054443
ltoes  -8.685216531 -18.08571043 -116.2003489
29
root  34.89471195 36.5555981 -14.60037682 9.476260185 -4.040264606 3.1403265
lowerback  -8.818349838 -0.1986739784 -0.3153150082
upperback  -3.744729757 0.221235007 -3.208019972
thorax  1.077800035 0.2638249993 -3.115119934
lowerneck  -14.59990025 -5.050419807 -4.046780109
upperneck  14.74610043 -7.0218997 6.787310123
head  7.319819927 -2.892450094 2.131530046
lclavicle  0 -4.497500157e-015 -2.743230041e-014
lhumerus  -48.24039841 31.20280075 62.80590057
lradius  0.008978257887 -6.507048965e-006 29.58409691
lwrist  3.192251654e-007 -3.790274832e-007 -28.51620102
lhand  -4.418068011e-031 -36.94179916 -10.60009956
lfingers  90 7.125020027 -90
lthumb  94.81965181 -25.43580319 101.1068474
rclavicle  0 -4.497500157e-015 -2.743230041e-014
rhumerus  -49.30210114 -31.31110001 -55.29610062
rradius  -5.16745672e-007 2.214343908e-008 55.78379822
rwrist  0.0006954420824 -0.004670973402 -161.2389984
rhand  -1.766929654e-031 -2.254040003 -7.439350128
rfingers  -90 -7.125020027 -90
rthumb  -86.40977724 -8.222395135 -66.31215948
rfemur  -12.29795551 15.68657112 12.89951038
rtibia  -0.5206106305 -0.6855013371 19.73235893
rfoot  0.4609045088 -21.39876747 -36.63093948
rtoes  4.056153959 19.60088542 -101.9356359
lfemur  -8.055766106 -15.87926769 -19.99375153
ltibia  2.923031807 0.1203986853 13.55242538
lfoot  0.4125475883 -24.94200897 35.86499786
ltoes  -8.652820903 -18.10082826 -116.0960369
